<svg version="1.2" baseProfile="tiny-ps" xmlns="http://www.w3.org/2000/svg" viewBox="0 0 250 37" width="250" height="37">
	<title>logo-svg</title>
	<style>
		tspan { white-space:pre }
		.shp0 { fill: none;stroke: #222222;stroke-width: 2 } 
	</style>
	<path id="Layer" class="shp0" d="M1 1L249 1L249 36L1 36L1 1Z" />
	<g id="Layer">
		<path id="Misoo Homestay" fill="#000000" stroke="#000000" stroke-width="1" aria-label="Misoo Homestay"  d="M15.65 28L15.65 8.32L19.62 8.32L24.64 21.71L29.69 8.32L33.66 8.32L33.66 28L31.06 28L31.06 10.72L25.99 24.22L23.31 24.22L18.23 10.72L18.23 28L15.65 28ZM38.84 28L38.84 13.23L41.27 13.23L41.27 28L38.84 28ZM38.84 10.56L38.84 7.49L41.27 7.49L41.27 10.56L38.84 10.56ZM55.75 13.67L55.75 15.96Q54.73 15.44 53.62 15.17Q52.51 14.91 51.32 14.91Q49.52 14.91 48.61 15.46Q47.71 16.02 47.71 17.12Q47.71 17.97 48.36 18.46Q49 18.93 50.96 19.36L51.79 19.55Q54.37 20.1 55.45 21.12Q56.55 22.12 56.55 23.93Q56.55 25.98 54.91 27.18Q53.29 28.38 50.44 28.38Q49.25 28.38 47.96 28.16Q46.68 27.92 45.26 27.46L45.26 24.95Q46.6 25.65 47.91 26.01Q49.22 26.35 50.49 26.35Q52.21 26.35 53.13 25.77Q54.05 25.18 54.05 24.11Q54.05 23.12 53.38 22.59Q52.72 22.07 50.47 21.58L49.62 21.38Q47.37 20.91 46.37 19.93Q45.37 18.94 45.37 17.23Q45.37 15.15 46.84 14.01Q48.32 12.88 51.03 12.88Q52.38 12.88 53.57 13.08Q54.75 13.27 55.75 13.67ZM66.13 14.94Q64.18 14.94 63.04 16.46Q61.91 17.98 61.91 20.63Q61.91 23.28 63.03 24.81Q64.17 26.33 66.13 26.33Q68.07 26.33 69.2 24.8Q70.34 23.27 70.34 20.63Q70.34 18.01 69.2 16.48Q68.07 14.94 66.13 14.94ZM66.13 12.88Q69.29 12.88 71.1 14.94Q72.91 16.99 72.91 20.63Q72.91 24.26 71.1 26.33Q69.29 28.38 66.13 28.38Q62.95 28.38 61.15 26.33Q59.35 24.26 59.35 20.63Q59.35 16.99 61.15 14.94Q62.95 12.88 66.13 12.88ZM82.65 14.94Q80.7 14.94 79.56 16.46Q78.43 17.98 78.43 20.63Q78.43 23.28 79.55 24.81Q80.68 26.33 82.65 26.33Q84.59 26.33 85.72 24.8Q86.85 23.27 86.85 20.63Q86.85 18.01 85.72 16.48Q84.59 14.94 82.65 14.94ZM82.65 12.88Q85.81 12.88 87.62 14.94Q89.43 16.99 89.43 20.63Q89.43 24.26 87.62 26.33Q85.81 28.38 82.65 28.38Q79.47 28.38 77.67 26.33Q75.87 24.26 75.87 20.63Q75.87 16.99 77.67 14.94Q79.47 12.88 82.65 12.88Z" />
		<path id="Misoo Homestay" fill="#af9a7d" stroke="#af9a7d" stroke-width="1" aria-label="Misoo Homestay"  d="M102.13 28L102.13 8.32L104.8 8.32L104.8 16.39L114.47 16.39L114.47 8.32L117.14 8.32L117.14 28L114.47 28L114.47 18.63L104.8 18.63L104.8 28L102.13 28ZM128.05 14.94Q126.1 14.94 124.97 16.46Q123.83 17.98 123.83 20.63Q123.83 23.28 124.96 24.81Q126.09 26.33 128.05 26.33Q129.99 26.33 131.13 24.8Q132.26 23.27 132.26 20.63Q132.26 18.01 131.13 16.48Q129.99 14.94 128.05 14.94ZM128.05 12.88Q131.22 12.88 133.02 14.94Q134.83 16.99 134.83 20.63Q134.83 24.26 133.02 26.33Q131.22 28.38 128.05 28.38Q124.88 28.38 123.07 26.33Q121.28 24.26 121.28 20.63Q121.28 16.99 123.07 14.94Q124.88 12.88 128.05 12.88ZM150.35 16.07Q151.26 14.43 152.52 13.66Q153.79 12.88 155.5 12.88Q157.81 12.88 159.06 14.5Q160.31 16.11 160.31 19.09L160.31 28L157.87 28L157.87 19.17Q157.87 17.04 157.12 16.02Q156.37 14.99 154.83 14.99Q152.94 14.99 151.85 16.24Q150.76 17.49 150.76 19.65L150.76 28L148.32 28L148.32 19.17Q148.32 17.03 147.56 16.02Q146.81 14.99 145.24 14.99Q143.39 14.99 142.29 16.25Q141.2 17.51 141.2 19.65L141.2 28L138.76 28L138.76 13.23L141.2 13.23L141.2 15.53Q142.03 14.17 143.19 13.52Q144.35 12.88 145.94 12.88Q147.55 12.88 148.67 13.7Q149.81 14.51 150.35 16.07ZM177.78 20.01L177.78 21.2L166.63 21.2Q166.79 23.7 168.13 25.02Q169.49 26.33 171.9 26.33Q173.3 26.33 174.6 25.98Q175.92 25.64 177.21 24.95L177.21 27.25Q175.91 27.8 174.54 28.09Q173.17 28.38 171.76 28.38Q168.22 28.38 166.15 26.33Q164.1 24.27 164.1 20.76Q164.1 17.14 166.05 15.01Q168.01 12.88 171.33 12.88Q174.31 12.88 176.04 14.8Q177.78 16.71 177.78 20.01ZM166.71 19.31L175.36 19.3Q175.33 17.31 174.24 16.12Q173.15 14.94 171.36 14.94Q169.33 14.94 168.1 16.08Q166.89 17.23 166.71 19.31ZM191.18 13.67L191.18 15.96Q190.15 15.44 189.04 15.17Q187.93 14.91 186.75 14.91Q184.94 14.91 184.03 15.46Q183.13 16.02 183.13 17.12Q183.13 17.97 183.78 18.46Q184.43 18.93 186.38 19.36L187.21 19.55Q189.79 20.1 190.87 21.12Q191.97 22.12 191.97 23.93Q191.97 25.98 190.33 27.18Q188.71 28.38 185.86 28.38Q184.68 28.38 183.38 28.16Q182.11 27.92 180.68 27.46L180.68 24.95Q182.03 25.65 183.33 26.01Q184.64 26.35 185.92 26.35Q187.63 26.35 188.55 25.77Q189.48 25.18 189.48 24.11Q189.48 23.12 188.8 22.59Q188.14 22.07 185.89 21.58L185.05 21.38Q182.79 20.91 181.79 19.93Q180.79 18.94 180.79 17.23Q180.79 15.15 182.26 14.01Q183.74 12.88 186.46 12.88Q187.8 12.88 188.99 13.08Q190.17 13.27 191.18 13.67ZM195.79 9.04L198.23 9.04L198.23 13.23L203.23 13.23L203.23 15.12L198.23 15.12L198.23 23.14Q198.23 24.94 198.72 25.46Q199.22 25.97 200.73 25.97L203.23 25.97L203.23 28L200.73 28Q197.93 28 196.86 26.96Q195.79 25.9 195.79 23.14L195.79 15.12L194.01 15.12L194.01 13.23L195.79 13.23L195.79 9.04ZM215.54 20.58L213.13 20.58Q210.19 20.58 209.05 21.25Q207.92 21.92 207.92 23.54Q207.92 24.84 208.76 25.6Q209.62 26.35 211.08 26.35Q213.1 26.35 214.31 24.93Q215.54 23.49 215.54 21.12L215.54 20.58ZM217.97 19.58L217.97 28L215.54 28L215.54 25.76Q214.71 27.1 213.47 27.75Q212.23 28.38 210.44 28.38Q208.17 28.38 206.83 27.12Q205.49 25.84 205.49 23.7Q205.49 21.21 207.15 19.94Q208.83 18.68 212.14 18.68L215.54 18.68L215.54 18.44Q215.54 16.77 214.43 15.86Q213.34 14.94 211.35 14.94Q210.08 14.94 208.88 15.24Q207.68 15.54 206.57 16.15L206.57 13.91Q207.91 13.39 209.16 13.14Q210.41 12.88 211.6 12.88Q214.8 12.88 216.38 14.54Q217.97 16.2 217.97 19.58ZM235.59 13.23L229.11 29.37Q228.08 32.01 227.1 32.81Q226.13 33.62 224.49 33.62L222.55 33.62L222.55 31.59L223.98 31.59Q224.98 31.59 225.53 31.11Q226.09 30.64 226.76 28.87L227.19 27.76L221.22 13.23L223.79 13.23L228.41 24.78L233.02 13.23L235.59 13.23Z" />
	</g>
</svg>